<svg aria-hidden="true" style="position: absolute; width: 0; height: 0; overflow: hidden;" version="1.1" xmlns="http://www.w3.org/2000/svg" xmlns:xlink="http://www.w3.org/1999/xlink">
<defs>
<symbol id="icon-logo" viewBox="0 0 217 32">
<path fill="#028a41" style="fill: var(--color1, #028a41)" d="M28.22 1.109c0.173-0.202 0.501-0.244 0.71-0.070 0.24 0.176 0.261 0.562 0.043 0.766-2.2 2.205-4.406 4.405-6.607 6.611-0.634 0.631-0.917 1.588-0.729 2.463 0.042 0.237 0.141 0.456 0.227 0.678 0.083 0.21-0.012 0.451-0.184 0.586-1.508 1.335-3.011 2.676-4.52 4.009-0.203 0.194-0.555 0.17-0.733-0.045-0.644-0.721-1.284-1.446-1.926-2.168-0.777 0.381-1.643 0.586-2.51 0.553-1.285-0.036-2.543-0.583-3.458-1.484-0.59-0.587-1.132-1.222-1.609-1.904-0.952-1.363-1.667-2.939-1.787-4.613v-0.493c0.039-0.837 0.284-1.684 0.817-2.342 0.586-0.748 1.49-1.207 2.425-1.323 1.236-0.161 2.486 0.143 3.616 0.632 1.33 0.586 2.531 1.441 3.581 2.442 0.875 0.787 1.498 1.858 1.692 3.023 0.194 1.089 0.011 2.232-0.483 3.219 0.65 0.577 1.3 1.155 1.951 1.731 0.676-0.606 1.367-1.196 2.032-1.815-0.48-1.305-0.133-2.859 0.843-3.846 2.2-2.206 4.406-4.406 6.608-6.611v0zM7.405 3.726c-0.717 0.416-1.14 1.217-1.217 2.027-0.119 1.173 0.243 2.339 0.753 3.383 0.577 1.161 1.373 2.205 2.29 3.119 0.623 0.62 1.442 1.040 2.312 1.167 0.953 0.148 1.952-0.061 2.775-0.562 0.211-0.142 0.518-0.104 0.68 0.095 0.622 0.696 1.239 1.396 1.861 2.093 0.368-0.327 0.738-0.653 1.105-0.982-0.669-0.595-1.339-1.189-2.009-1.783-0.127-0.113-0.277-0.224-0.316-0.399-0.051-0.171 0.019-0.343 0.11-0.485 0.514-0.869 0.691-1.931 0.484-2.919-0.168-0.845-0.617-1.622-1.241-2.211-1.304-1.266-2.866-2.334-4.644-2.786-0.966-0.238-2.059-0.279-2.942 0.243zM28.122 1.019c0.11-0.127 0.269-0.202 0.431-0.218 0.159-0.016 0.324 0.025 0.455 0.131 0.029 0.021 0.056 0.045 0.080 0.071 0.103 0.109 0.159 0.255 0.168 0.402s-0.031 0.297-0.12 0.418c-0.021 0.029-0.045 0.056-0.071 0.080-1.143 1.146-2.288 2.29-3.433 3.435l-3.171 3.173c-0.301 0.3-0.519 0.677-0.639 1.084s-0.143 0.842-0.054 1.258l0.001 0.005c0.032 0.183 0.103 0.36 0.173 0.536l0.046 0.116c0.052 0.131 0.051 0.271 0.011 0.399-0.041 0.131-0.125 0.252-0.233 0.337l-1.971 1.749c-0.801 0.712-1.611 1.431-2.543 2.255l-0.031 0.028c-0.125 0.104-0.287 0.15-0.445 0.14s-0.312-0.075-0.424-0.193c-0.584-0.711-1.267-1.426-1.884-2.121-0.377 0.177-0.774 0.313-1.181 0.403-0.426 0.094-0.863 0.136-1.301 0.12-0.657-0.018-1.307-0.167-1.908-0.425-0.607-0.26-1.167-0.633-1.639-1.097-0.304-0.302-0.594-0.616-0.869-0.941-0.265-0.313-0.518-0.641-0.756-0.982-0.508-0.727-0.949-1.515-1.271-2.345-0.289-0.747-0.483-1.53-0.54-2.335-0.007-0.124-0.011-0.388 0-0.508 0.021-0.449 0.1-0.903 0.249-1.329 0.137-0.393 0.333-0.764 0.598-1.091 0.298-0.38 0.675-0.688 1.095-0.917 0.438-0.239 0.924-0.393 1.417-0.455 0.633-0.082 1.268-0.045 1.889 0.074 0.619 0.119 1.223 0.32 1.796 0.568 0.653 0.288 1.275 0.639 1.864 1.041 0.623 0.425 1.209 0.906 1.754 1.425 0.454 0.408 0.842 0.891 1.14 1.424 0.29 0.519 0.496 1.085 0.595 1.675 0.099 0.554 0.102 1.122 0.019 1.677-0.079 0.529-0.238 1.048-0.469 1.533l1.787 1.586c0.237-0.212 0.439-0.39 0.638-0.565 0.418-0.368 0.837-0.737 1.239-1.11-0.221-0.652-0.247-1.36-0.101-2.029 0.154-0.7 0.497-1.36 1.005-1.873 1.513-1.517 2.692-2.696 3.895-3.898l2.709-2.709zM28.579 1.065c-0.099 0.010-0.194 0.055-0.258 0.131l-0.101-0.086 0.094 0.094-2.713 2.713c-1.395 1.395-2.814 2.814-3.895 3.897-0.471 0.475-0.79 1.089-0.933 1.742-0.142 0.65-0.11 1.338 0.12 1.965l0.031 0.083-0.065 0.060c-0.434 0.404-0.871 0.789-1.308 1.174-0.262 0.231-0.521 0.459-0.725 0.642l-0.088 0.079c-0.706-0.625-1.412-1.251-2.116-1.877l0.045-0.091c0.242-0.485 0.408-1.008 0.488-1.544 0.079-0.527 0.076-1.067-0.018-1.593-0.093-0.56-0.288-1.097-0.565-1.591-0.284-0.507-0.653-0.967-1.086-1.356l-0.003-0.003c-0.536-0.511-1.111-0.983-1.723-1.401-0.575-0.392-1.182-0.735-1.819-1.016-0.558-0.241-1.144-0.436-1.741-0.551-0.596-0.115-1.203-0.15-1.806-0.072-0.462 0.058-0.915 0.201-1.323 0.424-0.39 0.213-0.739 0.498-1.015 0.849l-0.002 0.002c-0.244 0.302-0.426 0.646-0.553 1.011-0.139 0.4-0.214 0.825-0.234 1.248l0 0.49c0.056 0.775 0.243 1.53 0.522 2.251 0.314 0.81 0.745 1.579 1.241 2.289 0.23 0.329 0.478 0.651 0.741 0.962 0.271 0.321 0.556 0.629 0.852 0.923 0.448 0.44 0.979 0.794 1.556 1.042 0.573 0.246 1.19 0.387 1.812 0.404 0.416 0.016 0.831-0.025 1.235-0.114 0.419-0.092 0.827-0.237 1.213-0.426l0.091-0.045 2.011 2.264c0.064 0.067 0.155 0.105 0.248 0.11s0.187-0.020 0.258-0.079l0.021-0.018c0.766-0.677 1.653-1.464 2.546-2.258l1.98-1.756c0.068-0.053 0.12-0.128 0.146-0.21 0.023-0.073 0.024-0.151-0.004-0.222l-0.045-0.116c-0.076-0.189-0.152-0.38-0.188-0.586-0.097-0.458-0.072-0.938 0.060-1.385s0.373-0.865 0.706-1.196l3.172-3.174c1.145-1.145 2.291-2.29 3.435-3.437l0.003-0.003c0.014-0.014 0.028-0.028 0.039-0.044 0.051-0.070 0.074-0.159 0.069-0.246s-0.037-0.171-0.096-0.234c-0.013-0.014-0.028-0.027-0.043-0.038l-0.006-0.005c-0.074-0.062-0.171-0.085-0.265-0.076zM7.472 3.841c-0.327 0.19-0.59 0.465-0.782 0.785-0.207 0.344-0.332 0.741-0.37 1.14-0.058 0.571 0.001 1.141 0.137 1.696 0.137 0.557 0.351 1.101 0.603 1.616 0.277 0.557 0.605 1.087 0.974 1.589 0.39 0.531 0.825 1.030 1.291 1.494 0.303 0.302 0.654 0.555 1.035 0.747 0.377 0.19 0.784 0.322 1.202 0.383 0.459 0.072 0.929 0.058 1.383-0.034 0.459-0.093 0.902-0.265 1.302-0.509 0.133-0.087 0.295-0.119 0.449-0.098s0.301 0.097 0.403 0.222l1.769 1.99 0.893-0.794c-0.648-0.575-1.294-1.155-1.945-1.726-0.13-0.112-0.265-0.23-0.309-0.425-0.031-0.109-0.025-0.217 0.003-0.32 0.026-0.096 0.071-0.185 0.122-0.265 0.249-0.421 0.416-0.888 0.496-1.369s0.072-0.977-0.028-1.455l-0-0.002c-0.080-0.403-0.227-0.791-0.428-1.149-0.206-0.367-0.468-0.702-0.774-0.991l-0.001-0.002c-0.683-0.663-1.438-1.272-2.258-1.764-0.725-0.435-1.503-0.779-2.327-0.989-0.51-0.126-1.056-0.195-1.585-0.152-0.442 0.037-0.872 0.152-1.258 0.38zM6.463 4.489c0.214-0.357 0.508-0.664 0.875-0.877 0.424-0.25 0.892-0.377 1.371-0.417 0.56-0.046 1.135 0.027 1.671 0.159 0.85 0.216 1.651 0.571 2.399 1.019 0.838 0.503 1.608 1.123 2.305 1.799 0.325 0.307 0.605 0.664 0.824 1.054 0.214 0.382 0.371 0.797 0.457 1.228 0.106 0.509 0.114 1.038 0.029 1.55-0.085 0.514-0.264 1.013-0.529 1.462l-0.002 0.003c-0.039 0.062-0.074 0.129-0.093 0.197-0.016 0.059-0.020 0.12-0.002 0.18l0.003 0.010c0.024 0.11 0.126 0.199 0.224 0.284l2.17 1.926-0.111 0.099c-0.233 0.209-0.519 0.463-0.805 0.716l-0.4 0.355c-0.652-0.731-1.303-1.464-1.953-2.197-0.058-0.071-0.144-0.114-0.234-0.127-0.093-0.013-0.191 0.006-0.269 0.059l-0.005 0.003c-0.426 0.259-0.899 0.443-1.389 0.543-0.484 0.098-0.985 0.113-1.474 0.037-0.447-0.065-0.881-0.205-1.283-0.408-0.406-0.205-0.78-0.475-1.103-0.796-0.476-0.474-0.92-0.984-1.318-1.525-0.377-0.513-0.714-1.057-0.998-1.629-0.258-0.529-0.48-1.091-0.622-1.671-0.143-0.582-0.205-1.182-0.144-1.784 0.041-0.438 0.18-0.873 0.407-1.251zM29.858 2.361l0.025-0.013c0.147-0.071 0.316-0.075 0.466-0.027s0.286 0.151 0.364 0.293l0.012 0.022c0.069 0.129 0.087 0.276 0.061 0.414-0.027 0.14-0.099 0.273-0.206 0.37l-5.267 5.267c-0.089 0.094-0.204 0.16-0.327 0.19-0.121 0.030-0.252 0.025-0.372-0.022-0.15-0.053-0.271-0.165-0.344-0.301s-0.099-0.296-0.061-0.449c0.037-0.183 0.159-0.301 0.275-0.415 1.656-1.636 3.295-3.294 4.941-4.941 0.040-0.037 0.078-0.077 0.117-0.117 0.093-0.097 0.187-0.195 0.311-0.269l0.007-0.004zM30.001 2.586l-0.019 0.010c-0.091 0.056-0.171 0.139-0.251 0.222-0.041 0.043-0.083 0.087-0.127 0.127-1.645 1.645-3.283 3.301-4.937 4.937-0.088 0.086-0.18 0.175-0.2 0.28l-0.001 0.007c-0.022 0.087-0.006 0.181 0.037 0.26s0.113 0.146 0.199 0.176l0.005 0.002c0.068 0.027 0.145 0.030 0.217 0.012 0.075-0.018 0.146-0.059 0.199-0.116 1.494-1.715 3.626-3.626 5.28-5.281 0.064-0.058 0.107-0.137 0.123-0.221 0.015-0.081 0.006-0.166-0.034-0.239l-0.011-0.021c-0.045-0.081-0.123-0.139-0.212-0.168s-0.184-0.027-0.267 0.012zM31.385 3.749l0.024-0.009c0.155-0.050 0.323-0.032 0.466 0.036s0.262 0.188 0.321 0.34l0.010 0.027c0.046 0.124 0.047 0.256 0.014 0.379-0.034 0.126-0.106 0.243-0.202 0.331l-1.948 1.947c-1.106 1.106-2.212 2.212-3.319 3.317l-0.045 0.044c-0.119 0.105-0.275 0.157-0.428 0.157-0.155-0-0.31-0.054-0.427-0.161l-0.055-0.057c-0.111-0.121-0.163-0.283-0.159-0.443s0.066-0.318 0.182-0.433c1.676-1.788 3.545-3.545 5.284-5.284 0.037-0.037 0.077-0.074 0.121-0.106 0.047-0.035 0.1-0.065 0.16-0.085zM31.492 3.993l-0.024 0.008c-0.030 0.010-0.059 0.027-0.086 0.047-0.031 0.023-0.062 0.051-0.090 0.079-1.749 1.75-3.498 3.585-5.287 5.287-0.065 0.066-0.099 0.157-0.102 0.25s0.027 0.187 0.089 0.256l0.038 0.040c0.067 0.061 0.157 0.092 0.248 0.092s0.183-0.030 0.251-0.090l0.029-0.029c1.109-1.106 2.216-2.213 3.323-3.321l1.953-1.953c0.061-0.055 0.107-0.129 0.129-0.208 0.019-0.071 0.019-0.147-0.008-0.218l-0.009-0.026c-0.034-0.085-0.103-0.153-0.187-0.193s-0.181-0.051-0.269-0.023zM32.727 5.556c0.101-0.109 0.229-0.168 0.362-0.184 0.096-0.012 0.195-0.001 0.288 0.029 0.092 0.030 0.179 0.079 0.251 0.145 0.105 0.095 0.181 0.225 0.2 0.378 0.006 0.051 0.001 0.123 0.001 0.177l-0.005 0.018c-0.019 0.072-0.047 0.144-0.085 0.211-0.035 0.062-0.079 0.12-0.13 0.169l-6.527 6.526c-0.512 0.538-1.183 0.903-1.899 1.071-0.688 0.161-1.421 0.141-2.096-0.084l-1.516 1.707 8.373 7.432c0.175 0.149 0.333 0.318 0.469 0.503 0.132 0.18 0.243 0.375 0.328 0.582 0.178 0.425 0.242 0.893 0.196 1.35-0.046 0.456-0.201 0.902-0.461 1.282-0.224 0.338-0.526 0.622-0.872 0.831s-0.735 0.345-1.138 0.386c-0.446 0.054-0.901-0.010-1.319-0.171s-0.799-0.421-1.095-0.761l-7.315-8.242-7.177 8.084c-0.161 0.195-0.344 0.378-0.547 0.534-0.185 0.143-0.387 0.264-0.605 0.353-0.458 0.197-0.967 0.259-1.459 0.195-0.491-0.065-0.965-0.256-1.354-0.566-0.334-0.258-0.605-0.594-0.791-0.971-0.185-0.375-0.287-0.791-0.286-1.212-0.007-0.396 0.077-0.79 0.236-1.15 0.16-0.362 0.396-0.691 0.693-0.955l6.084-5.4c0.022-0.022 0.046-0.043 0.070-0.061 0.123-0.091 0.277-0.131 0.426-0.122s0.296 0.069 0.406 0.176c0.022 0.021 0.042 0.044 0.060 0.069l0.012 0.016c0.103 0.136 0.139 0.306 0.117 0.467-0.022 0.16-0.102 0.314-0.23 0.419-0.871 0.479-4.997 4.435-6.101 5.415-0.27 0.239-0.43 0.579-0.47 0.934s0.040 0.724 0.249 1.018l0.003 0.004c0.192 0.292 0.493 0.497 0.825 0.593s0.697 0.083 1.015-0.062l0.006-0.002c0.313-0.125 0.541-0.39 0.766-0.651 0.073-0.084 0.145-0.168 0.216-0.244 3.797-4.278 7.634-8.537 11.397-12.842 0.132-0.154 0.27-0.316 0.506-0.345 0.181-0.032 0.329 0.032 0.476 0.096 0.046 0.020 0.091 0.040 0.141 0.056l0.005 0.001c0.455 0.169 0.955 0.193 1.426 0.089 0.473-0.104 0.917-0.337 1.26-0.681 1.104-1.101 2.205-2.203 3.307-3.305s2.204-2.205 3.308-3.306zM33.121 5.637c-0.075 0.009-0.147 0.042-0.202 0.103l-0.098-0.089 0.094 0.094c-1.103 1.101-2.205 2.203-3.307 3.305s-2.204 2.205-3.307 3.306c-0.379 0.381-0.869 0.638-1.391 0.753s-1.073 0.088-1.576-0.098c-0.050-0.017-0.104-0.041-0.158-0.064-0.111-0.048-0.224-0.097-0.329-0.077l-0.009 0.002c-0.134 0.016-0.238 0.138-0.337 0.254-3.652 4.193-7.999 8.548-11.405 12.851-0.073 0.078-0.14 0.156-0.208 0.234-0.245 0.285-0.494 0.574-0.865 0.723-0.377 0.172-0.806 0.188-1.197 0.075-0.39-0.113-0.743-0.354-0.971-0.698-0.249-0.348-0.345-0.783-0.297-1.201s0.237-0.82 0.558-1.104c1.954-1.735 4.096-3.828 6.108-5.421 0.075-0.063 0.123-0.155 0.136-0.251 0.013-0.094-0.006-0.192-0.063-0.268l-0.014-0.018c-0.010-0.014-0.022-0.027-0.033-0.039-0.063-0.061-0.149-0.095-0.237-0.101s-0.18 0.018-0.251 0.070c-0.014 0.010-0.028 0.022-0.040 0.035l-6.096 5.411c-0.268 0.239-0.481 0.536-0.626 0.864-0.144 0.326-0.22 0.682-0.214 1.039v0.002c-0.001 0.379 0.091 0.756 0.259 1.096 0.169 0.342 0.414 0.646 0.716 0.879l0.002 0.001c0.351 0.28 0.779 0.452 1.223 0.511 0.445 0.059 0.906 0.002 1.319-0.176l0.003-0.001c0.196-0.080 0.378-0.189 0.545-0.317 0.185-0.143 0.354-0.311 0.504-0.493 2.391-2.292 5.118-5.769 7.381-8.315l7.515 8.467c0.268 0.307 0.612 0.542 0.991 0.688 0.377 0.145 0.789 0.203 1.192 0.154h0.002c0.364-0.037 0.717-0.16 1.029-0.349s0.586-0.447 0.789-0.753l0.001-0.002c0.234-0.343 0.375-0.746 0.416-1.158 0.041-0.413-0.016-0.837-0.177-1.221l-0.001-0.002c-0.076-0.187-0.177-0.364-0.296-0.527-0.124-0.169-0.268-0.323-0.427-0.459-2.53-2.53-5.839-5.179-8.575-7.611 0.604-0.68 1.205-1.361 1.811-2.039l0.084 0.031c0.649 0.234 1.362 0.261 2.032 0.104 0.667-0.157 1.292-0.496 1.767-0.995 2.153-2.046 4.339-4.624 6.534-6.533 0.034-0.032 0.062-0.069 0.085-0.108s0.041-0.085 0.054-0.132v-0.119c-0.012-0.083-0.054-0.153-0.112-0.206-0.044-0.040-0.097-0.070-0.155-0.089s-0.117-0.025-0.175-0.018zM19.601 17.937c2.432 2.741 4.861 5.487 7.297 8.224 0.118 0.135 0.237 0.271 0.379 0.37l0.003 0.002c0.21 0.153 0.462 0.245 0.72 0.271s0.526-0.012 0.763-0.119l0.003-0.001c0.256-0.109 0.475-0.297 0.632-0.527s0.253-0.503 0.262-0.781v-0.003c0.013-0.233-0.034-0.467-0.128-0.679-0.096-0.215-0.241-0.408-0.423-0.558-2.796-2.486-5.597-4.967-8.396-7.451-0.193 0.214-0.389 0.436-0.585 0.657l-0.528 0.594zM23.363 22.578l-4.119-4.643 0.079-0.088c0.227-0.252 0.417-0.467 0.606-0.68 0.221-0.25 0.443-0.5 0.675-0.757l0.088-0.098 0.098 0.087c2.145 1.901 4.289 3.805 6.432 5.708l2.055 1.824c0.214 0.176 0.384 0.403 0.496 0.655 0.111 0.25 0.166 0.526 0.151 0.801-0.012 0.33-0.124 0.651-0.308 0.921s-0.442 0.49-0.745 0.62c-0.281 0.127-0.595 0.172-0.9 0.141-0.303-0.031-0.599-0.139-0.847-0.319-0.169-0.117-0.299-0.266-0.428-0.413l-3.335-3.758zM29.919 2.479c0.24-0.132 0.571-0.025 0.689 0.221 0.11 0.204 0.053 0.469-0.118 0.622-1.757 1.758-3.514 3.515-5.272 5.272-0.14 0.151-0.369 0.214-0.562 0.137-0.234-0.083-0.382-0.353-0.32-0.594 0.034-0.173 0.179-0.288 0.296-0.407 1.628-1.627 3.255-3.254 4.881-4.881 0.133-0.124 0.247-0.275 0.405-0.37zM31.427 3.875c0.256-0.099 0.569 0.052 0.654 0.312 0.076 0.201-0.001 0.431-0.157 0.571-1.757 1.756-3.512 3.514-5.271 5.269-0.192 0.21-0.556 0.212-0.746-0.003-0.191-0.193-0.181-0.536 0.019-0.719 1.757-1.757 3.515-3.514 5.271-5.272 0.066-0.065 0.138-0.129 0.229-0.158zM32.821 5.651c0.276-0.305 0.825-0.113 0.875 0.29v0.144c-0.032 0.121-0.089 0.234-0.181 0.32-2.177 2.176-4.352 4.353-6.529 6.528-0.989 1.038-2.592 1.411-3.94 0.924-0.556 0.623-1.108 1.248-1.663 1.873 2.824 2.507 5.65 5.014 8.474 7.521 0.329 0.281 0.596 0.635 0.76 1.036 0.339 0.808 0.243 1.781-0.252 2.506-0.427 0.643-1.147 1.082-1.915 1.16-0.851 0.102-1.735-0.242-2.298-0.887-2.473-2.785-4.943-5.571-7.415-8.355-2.428 2.732-4.852 5.467-7.279 8.2-0.298 0.36-0.665 0.671-1.102 0.849-0.87 0.375-1.936 0.238-2.677-0.353-0.636-0.489-1.029-1.277-1.027-2.081-0.013-0.755 0.321-1.503 0.884-2.004 2.029-1.802 4.059-3.603 6.089-5.405 0.207-0.212 0.588-0.191 0.764 0.049 0.18 0.218 0.124 0.562-0.097 0.73-2.029 1.803-4.060 3.603-6.090 5.406-0.591 0.523-0.699 1.487-0.241 2.129 0.42 0.638 1.31 0.896 2.006 0.58 0.446-0.177 0.715-0.591 1.030-0.928 3.776-4.255 7.553-8.509 11.329-12.764 0.139-0.153 0.27-0.355 0.494-0.382 0.201-0.039 0.376 0.086 0.558 0.147 0.959 0.356 2.105 0.101 2.826-0.624 2.207-2.201 4.407-4.409 6.614-6.61v0zM19.423 17.937c2.414 2.724 4.833 5.445 7.248 8.169 0.17 0.184 0.322 0.39 0.53 0.534 0.46 0.336 1.098 0.399 1.617 0.166 0.561-0.24 0.954-0.817 0.975-1.426 0.028-0.511-0.205-1.022-0.599-1.346-2.83-2.512-5.659-5.025-8.49-7.535-0.431 0.476-0.851 0.961-1.281 1.437z"></path>
<path fill="#9c3" style="fill: var(--color2, #9c3)" d="M46.516 23.945h-4.187v-16.267h-5.362v-3.486h14.911v3.486h-5.362v16.267zM61.976 23.945l-0.798-2.052h-0.106c-0.696 0.876-1.411 1.485-2.144 1.821s-1.688 0.507-2.868 0.507c-1.452 0-2.591-0.415-3.426-1.245s-1.25-2.010-1.25-3.541c0-1.605 0.563-2.789 1.683-3.55s2.813-1.185 5.072-1.263l2.619-0.083v-0.664c0-1.531-0.784-2.296-2.351-2.296-1.203 0-2.624 0.364-4.251 1.093l-1.365-2.776c1.738-0.908 3.665-1.36 5.782-1.36 2.024 0 3.578 0.443 4.657 1.323 1.083 0.881 1.623 2.222 1.623 4.025v10.061h-2.877zM60.759 16.946l-1.591 0.055c-1.199 0.037-2.093 0.249-2.679 0.65-0.585 0.397-0.876 1.001-0.876 1.812 0 1.162 0.669 1.743 2.001 1.743 0.954 0 1.715-0.277 2.287-0.825s0.858-1.282 0.858-2.19v-1.245zM79.626 19.463c0 1.549-0.535 2.73-1.614 3.541-1.074 0.811-2.683 1.217-4.827 1.217-1.097 0-2.033-0.074-2.808-0.221-0.775-0.152-1.499-0.369-2.176-0.659v-3.403c0.765 0.36 1.628 0.659 2.587 0.904s1.803 0.364 2.531 0.364c1.499 0 2.245-0.433 2.245-1.3 0-0.323-0.101-0.586-0.3-0.788s-0.539-0.433-1.024-0.692c-0.489-0.254-1.134-0.553-1.946-0.899-1.162-0.484-2.015-0.936-2.559-1.351s-0.941-0.89-1.19-1.425c-0.249-0.539-0.369-1.199-0.369-1.983 0-1.337 0.516-2.375 1.558-3.108 1.037-0.733 2.513-1.097 4.422-1.097 1.821 0 3.587 0.397 5.307 1.185l-1.24 2.965c-0.756-0.323-1.462-0.59-2.121-0.798-0.655-0.208-1.328-0.309-2.010-0.309-1.217 0-1.826 0.327-1.826 0.987 0 0.369 0.198 0.692 0.59 0.959 0.392 0.272 1.25 0.673 2.573 1.203 1.176 0.48 2.043 0.927 2.591 1.342s0.954 0.89 1.217 1.429c0.258 0.544 0.387 1.19 0.387 1.937zM89.203 20.93c0.724 0 1.586-0.157 2.596-0.475v3.075c-1.028 0.461-2.287 0.692-3.781 0.692-1.651 0-2.849-0.415-3.601-1.25s-1.13-2.084-1.13-3.749v-7.285h-1.969v-1.748l2.269-1.379 1.19-3.186h2.633v3.214h4.228v3.099h-4.228v7.276c0 0.586 0.166 1.019 0.493 1.296 0.327 0.281 0.761 0.42 1.3 0.42zM92.689 8.84h4.514l2.849 8.498c0.244 0.738 0.41 1.609 0.503 2.619h0.078c0.101-0.927 0.295-1.803 0.581-2.619l2.799-8.498h4.417l-6.391 17.032c-0.586 1.577-1.42 2.757-2.508 3.536-1.084 0.784-2.351 1.176-3.804 1.176-0.71 0-1.406-0.078-2.093-0.231v-3.264c0.498 0.115 1.037 0.175 1.623 0.175 0.728 0 1.365-0.221 1.909-0.669 0.549-0.447 0.973-1.12 1.277-2.019l0.244-0.742-5.999-14.994z"></path>
<path fill="#028a41" style="fill: var(--color1, #028a41)" d="M115.097 13.599h1.351c1.323 0 2.301-0.221 2.928-0.664 0.632-0.438 0.945-1.134 0.945-2.079 0-0.936-0.323-1.605-0.964-2.001-0.645-0.397-1.641-0.595-2.992-0.595h-1.268v5.339zM115.097 17.001v7.58h-4.187v-19.753h5.754c2.683 0 4.666 0.489 5.953 1.466 1.291 0.978 1.932 2.462 1.932 4.449 0 1.162-0.318 2.195-0.959 3.103-0.636 0.904-1.54 1.614-2.711 2.126 2.969 4.44 4.906 7.313 5.805 8.608h-4.648l-4.712-7.58h-2.227zM135.108 12.133c-0.876 0-1.559 0.277-2.056 0.83-0.493 0.553-0.779 1.337-0.853 2.352h5.787c-0.018-1.014-0.281-1.798-0.798-2.352-0.512-0.553-1.208-0.83-2.079-0.83zM135.689 24.858c-2.435 0-4.334-0.673-5.704-2.015s-2.052-3.241-2.052-5.699c0-2.531 0.632-4.486 1.895-5.869 1.268-1.383 3.015-2.075 5.252-2.075 2.135 0 3.795 0.609 4.984 1.821 1.19 1.217 1.784 2.891 1.784 5.035v1.997h-9.743c0.046 1.171 0.392 2.089 1.037 2.748 0.65 0.659 1.563 0.987 2.734 0.987 0.908 0 1.771-0.097 2.582-0.286 0.807-0.189 1.655-0.489 2.541-0.904v3.191c-0.724 0.36-1.494 0.632-2.315 0.807-0.816 0.175-1.817 0.263-2.997 0.263zM151.324 24.858c-4.698 0-7.045-2.582-7.045-7.741 0-2.568 0.636-4.528 1.913-5.883 1.282-1.355 3.112-2.033 5.496-2.033 1.747 0 3.315 0.341 4.703 1.024l-1.217 3.186c-0.65-0.258-1.249-0.475-1.807-0.641s-1.116-0.249-1.674-0.249c-2.144 0-3.214 1.521-3.214 4.565 0 2.951 1.070 4.426 3.214 4.426 0.788 0 1.521-0.106 2.199-0.318 0.673-0.212 1.351-0.544 2.024-0.991v3.532c-0.664 0.424-1.337 0.719-2.020 0.881-0.678 0.161-1.535 0.244-2.573 0.244zM159.245 5.567c0-1.342 0.747-2.010 2.241-2.010s2.241 0.669 2.241 2.010c0 0.641-0.184 1.139-0.558 1.494s-0.936 0.535-1.683 0.535c-1.494 0-2.241-0.678-2.241-2.029zM163.538 24.582h-4.117v-15.105h4.117v15.105zM176.157 24.858c-1.775 0-3.168-0.645-4.177-1.932h-0.212c0.143 1.259 0.212 1.987 0.212 2.186v6.109h-4.117v-21.744h3.347l0.581 1.964h0.189c0.968-1.494 2.393-2.241 4.288-2.241 1.78 0 3.177 0.687 4.187 2.066s1.512 3.292 1.512 5.745c0 1.609-0.235 3.011-0.71 4.2-0.47 1.19-1.143 2.093-2.020 2.716-0.871 0.622-1.9 0.931-3.080 0.931zM174.94 12.492c-1.014 0-1.761 0.314-2.227 0.936-0.47 0.627-0.715 1.66-0.733 3.103v0.443c0 1.623 0.244 2.78 0.724 3.486 0.484 0.701 1.245 1.051 2.292 1.051 1.849 0 2.771-1.522 2.771-4.565 0-1.485-0.226-2.596-0.682-3.338s-1.167-1.116-2.144-1.116zM191.627 12.133c-0.876 0-1.559 0.277-2.056 0.83-0.493 0.553-0.779 1.337-0.853 2.352h5.787c-0.018-1.014-0.281-1.798-0.798-2.352-0.512-0.553-1.208-0.83-2.079-0.83zM192.208 24.858c-2.435 0-4.334-0.673-5.704-2.015s-2.052-3.241-2.052-5.699c0-2.531 0.632-4.486 1.895-5.869 1.268-1.383 3.015-2.075 5.252-2.075 2.135 0 3.795 0.609 4.984 1.821 1.19 1.217 1.784 2.891 1.784 5.035v1.997h-9.743c0.046 1.171 0.392 2.089 1.037 2.748 0.65 0.659 1.563 0.987 2.734 0.987 0.908 0 1.771-0.097 2.582-0.286 0.807-0.189 1.655-0.489 2.541-0.904v3.191c-0.724 0.36-1.494 0.632-2.315 0.807-0.816 0.175-1.817 0.263-2.997 0.263zM212.246 20.1c0 1.549-0.535 2.73-1.614 3.541-1.074 0.811-2.683 1.217-4.827 1.217-1.097 0-2.033-0.074-2.808-0.221-0.775-0.152-1.499-0.369-2.176-0.659v-3.403c0.765 0.36 1.628 0.659 2.587 0.904s1.803 0.364 2.531 0.364c1.499 0 2.245-0.433 2.245-1.3 0-0.323-0.101-0.586-0.3-0.788s-0.539-0.433-1.024-0.692c-0.489-0.254-1.134-0.553-1.946-0.899-1.162-0.484-2.015-0.936-2.559-1.351s-0.941-0.89-1.19-1.425c-0.249-0.539-0.369-1.199-0.369-1.983 0-1.337 0.516-2.375 1.558-3.108 1.037-0.733 2.513-1.097 4.422-1.097 1.821 0 3.587 0.397 5.307 1.185l-1.24 2.965c-0.756-0.323-1.462-0.59-2.121-0.798-0.655-0.208-1.328-0.309-2.010-0.309-1.217 0-1.826 0.327-1.826 0.987 0 0.369 0.198 0.692 0.59 0.959 0.392 0.272 1.25 0.673 2.573 1.203 1.176 0.48 2.043 0.927 2.591 1.342s0.954 0.89 1.217 1.429c0.258 0.544 0.387 1.19 0.387 1.937z"></path>
</symbol>
</defs>
</svg>
